<?xml version="1.0" encoding="utf-8"?>
<svg version="1.0" xmlns="http://www.w3.org/2000/svg" width="2048.000000pt" height="2048.000000pt" viewBox="0 0 2048.000000 2048.000000" preserveAspectRatio="xMidYMid meet" xmlns:bx="https://boxy-svg.com"><defs><bx:export><bx:file format="svg" units="pt"/></bx:export></defs><ellipse style="paint-order: stroke; fill: rgb(75, 83, 60); stroke: rgba(0, 0, 0, 0);" cx="967.496" cy="1112.21" rx="900.318" ry="815.391"/><path d="M 1211.43 563.065 C 1203.03 564.965 1194.83 568.765 1191.43 572.465 C 1189.33 574.765 1185.43 576.465 1172.73 580.665 C 1155.83 586.165 1155.23 586.265 1135.23 585.565 C 1127.33 585.265 1124.93 585.565 1121.03 587.365 C 1101.13 596.165 1093.93 623.665 1107.03 640.265 C 1111.83 646.165 1121.73 652.165 1129.33 653.665 L 1134.93 654.765 L 1135.53 680.965 C 1136.33 713.865 1137.63 731.365 1139.43 733.165 C 1140.13 733.865 1142.23 734.765 1144.13 735.265 C 1147.23 736.065 1147.93 736.865 1150.93 744.065 C 1153.93 751.065 1154.23 752.565 1153.33 755.565 C 1149.93 767.365 1151.13 779.165 1157.73 796.765 C 1160.83 804.865 1162.23 810.265 1162.23 813.565 C 1162.23 820.665 1161.63 821.565 1157.13 821.565 C 1153.43 821.565 1153.13 821.765 1150.13 827.765 C 1138.13 851.465 1109.83 924.365 1096.93 964.565 C 1086.03 998.665 1081.43 1016.57 1079.73 1031.66 L 1079.13 1037.27 L 1066.93 1038.46 C 999.426 1045.27 907.826 1059.16 887.526 1065.66 C 884.726 1066.57 881.226 1071.27 881.226 1074.27 C 881.126 1077.46 879.526 1077.46 864.726 1074.57 C 832.226 1068.07 819.026 1069.57 800.126 1082.16 C 786.326 1091.27 766.326 1112.46 764.726 1119.57 L 764.026 1122.57 L 745.626 1122.57 C 734.026 1122.57 727.226 1122.96 727.226 1123.57 C 727.226 1125.16 723.426 1124.66 719.126 1122.57 C 713.926 1119.87 711.226 1115.37 711.226 1109.37 C 711.226 1103.87 722.726 1069.16 735.226 1036.77 C 738.026 1029.37 738.626 1028.57 741.026 1028.57 C 793.926 1028.27 895.526 1026.27 898.626 1025.46 C 903.926 1024.07 909.626 1018.16 911.026 1012.57 C 911.726 1009.66 911.826 997.365 911.126 972.265 C 908.626 866.965 907.326 818.765 904.226 702.565 C 903.126 661.965 902.526 658.165 897.426 653.265 C 891.126 647.265 903.626 647.665 708.226 646.065 C 584.626 645.065 527.726 644.865 524.626 645.565 C 518.326 646.965 515.126 648.865 511.426 652.965 C 507.026 657.965 505.926 663.165 506.626 675.065 C 507.226 683.965 509.126 751.865 513.726 928.065 C 515.526 998.565 516.126 1014.26 517.426 1017.47 C 518.726 1021.07 523.026 1025.37 527.726 1027.87 C 531.726 1030.07 531.826 1030.07 593.026 1029.77 L 654.226 1029.46 L 652.126 1034.77 C 651.026 1037.66 644.626 1054.27 638.026 1071.57 C 627.326 1099.57 625.926 1103.96 625.426 1110.87 C 624.826 1121.16 626.626 1125.87 633.826 1132.46 C 639.526 1137.66 646.626 1140.96 655.526 1142.46 C 658.626 1142.96 621.126 1143.37 562.526 1143.46 L 464.226 1143.57 L 464.226 1140.46 C 464.226 1137.77 472.826 1065.87 476.326 1039.27 C 477.826 1028.57 477.626 1028.37 467.526 1029.27 L 460.426 1029.87 L 463.826 1018.57 C 472.426 990.365 479.526 962.265 478.526 960.665 C 477.026 958.165 471.126 955.565 467.026 955.565 C 462.926 955.565 461.826 956.765 459.626 964.065 C 458.526 967.965 458.326 968.065 454.426 967.765 L 450.326 967.465 L 448.826 972.765 C 448.026 975.665 444.626 987.565 441.226 999.265 C 437.926 1010.97 435.226 1020.87 435.226 1021.26 C 435.226 1021.76 436.626 1022.97 438.226 1023.87 C 439.926 1024.87 441.226 1026.57 441.226 1027.66 C 441.226 1029.46 440.426 1029.57 426.326 1029.57 C 418.026 1029.57 411.126 1029.16 410.826 1028.77 C 410.526 1028.27 406.026 1012.47 400.826 993.565 C 395.526 974.665 390.626 958.565 389.826 957.665 C 387.826 955.665 383.126 955.865 378.126 958.065 C 373.126 960.365 373.026 959.065 380.226 986.065 C 383.026 996.465 386.826 1010.57 388.626 1017.26 L 391.926 1029.57 L 382.526 1029.57 C 375.726 1029.57 373.226 1029.87 373.226 1030.87 C 373.226 1031.57 376.126 1055.87 379.726 1084.87 C 383.326 1113.87 386.226 1138.96 386.226 1140.57 L 386.226 1143.57 L 307.226 1143.57 L 228.226 1143.57 L 228.226 1159.57 L 228.226 1175.57 L 235.326 1175.57 L 242.326 1175.57 L 242.126 1192.77 L 241.926 1210.07 L 256.826 1210.57 L 271.726 1211.07 L 272.026 1403.37 L 272.226 1595.66 L 274.226 1595.37 L 276.326 1595.07 L 276.226 1402.77 L 276.226 1210.57 L 293.226 1210.57 L 310.226 1210.57 L 310.226 1403.07 C 310.226 1594.87 310.226 1595.57 312.226 1595.57 C 314.226 1595.57 314.226 1594.87 314.226 1403.07 L 314.226 1210.57 L 556.726 1210.57 L 799.226 1210.57 L 799.226 1403.16 L 799.226 1595.66 L 801.526 1595.37 L 803.726 1595.07 L 803.426 1402.77 L 803.226 1210.57 L 820.226 1210.57 L 837.226 1210.57 L 837.226 1403.07 L 837.226 1595.57 L 839.726 1595.57 L 842.226 1595.57 L 842.226 1403.07 L 842.226 1210.57 L 973.726 1210.57 L 1105.23 1210.57 L 1105.23 1228.37 L 1105.23 1246.16 L 1091.03 1249.46 C 1032.03 1263.16 987.026 1279.27 964.526 1294.77 C 930.726 1318.07 920.626 1347.96 924.126 1414.57 C 926.026 1448.96 933.626 1525.77 941.126 1585.46 C 942.126 1593.07 943.226 1595.37 945.226 1594.07 C 946.726 1593.16 946.826 1594.77 940.326 1538.07 C 926.526 1418.77 924.826 1370.66 933.326 1342.96 C 940.326 1320.27 957.126 1302.16 984.026 1288.66 C 1005.63 1277.77 1036.33 1267.77 1085.23 1255.57 C 1094.33 1253.37 1102.53 1251.27 1103.53 1250.96 C 1105.13 1250.46 1105.23 1251.96 1105.23 1271.87 L 1105.23 1293.37 L 1102.53 1294.07 C 1096.63 1295.46 1061.23 1310.07 1051.73 1314.87 C 1024.33 1328.96 1008.33 1344.57 1000.03 1365.57 C 994.026 1380.77 992.126 1394.87 992.126 1425.07 C 992.226 1462.37 995.826 1500.07 1006.23 1570.57 C 1010.13 1596.77 1009.83 1595.57 1012.33 1595.57 C 1014.83 1595.57 1015.23 1599.77 1008.83 1555.57 C 1001.13 1502.46 997.626 1467.37 996.626 1433.57 C 994.626 1368.77 1008.33 1341.66 1054.93 1318.16 C 1065.73 1312.77 1101.43 1298.57 1104.23 1298.57 C 1104.83 1298.57 1105.33 1354.07 1105.43 1446.77 C 1105.73 1590.07 1105.83 1595.07 1107.53 1595.07 C 1109.33 1595.07 1109.43 1588.77 1109.53 1403.07 L 1109.73 1211.07 L 1125.83 1210.77 L 1141.93 1210.57 L 1142.73 1263.27 C 1143.13 1292.37 1143.23 1378.87 1143.13 1455.57 C 1142.73 1594.57 1142.73 1595.07 1144.73 1595.07 C 1146.73 1595.07 1146.73 1594.27 1147.03 1507.07 L 1147.23 1418.96 L 1160.53 1416.77 C 1167.73 1415.46 1175.13 1414.16 1176.73 1413.87 C 1179.73 1413.37 1179.63 1413.37 1174.53 1418.77 C 1168.93 1424.77 1167.23 1428.96 1167.23 1437.16 C 1167.23 1448.27 1172.73 1458.27 1181.33 1462.66 C 1185.03 1464.46 1188.13 1464.57 1265.23 1464.57 L 1345.23 1464.57 L 1345.23 1530.57 L 1345.23 1596.57 L 1315.03 1596.77 C 1285.53 1597.07 1284.73 1597.07 1284.73 1599.07 C 1284.73 1601.07 1285.53 1601.07 1373.13 1601.37 C 1464.13 1601.57 1465.13 1601.57 1462.03 1597.87 C 1461.23 1596.87 1454.83 1596.57 1434.63 1596.57 L 1408.23 1596.57 L 1408.23 1530.27 L 1408.23 1463.87 L 1483.13 1463.37 C 1571.63 1462.66 1562.03 1464.16 1577.83 1448.16 C 1592.63 1433.16 1594.03 1429.46 1604.33 1380.87 C 1621.63 1298.57 1647.33 1139.96 1661.83 1026.07 C 1668.43 974.065 1669.23 961.665 1666.83 953.065 C 1662.93 939.465 1653.63 930.865 1638.93 927.565 C 1626.43 924.865 1578.43 921.565 1548.83 921.465 C 1518.63 921.365 1507.23 923.865 1496.53 933.065 L 1492.43 936.565 L 1490.73 929.265 C 1480.53 886.665 1465.33 847.365 1450.13 824.465 C 1441.93 812.165 1420.23 790.365 1407.73 781.865 C 1387.03 767.965 1360.63 758.265 1336.53 755.965 C 1329.73 755.365 1329.23 755.165 1324.93 750.665 C 1317.23 742.665 1305.23 728.165 1305.23 726.865 C 1305.23 726.165 1306.73 722.765 1308.63 719.365 C 1312.73 711.965 1315.53 702.165 1317.83 687.065 C 1320.13 671.865 1319.33 642.865 1316.33 630.665 C 1310.43 607.265 1299.83 590.965 1286.03 583.965 C 1283.13 582.465 1278.53 579.365 1275.93 576.965 C 1270.23 571.865 1263.63 568.565 1251.63 564.965 C 1240.63 561.665 1221.53 560.765 1211.43 563.065 Z M 1240.73 567.065 C 1260.83 572.365 1278.73 593.465 1284.83 619.065 C 1287.23 629.565 1287.33 629.565 1279.43 629.565 L 1272.63 629.565 L 1270.33 621.765 C 1266.83 609.665 1261.13 600.365 1251.23 590.465 C 1244.03 583.165 1241.13 581.065 1233.23 577.265 C 1228.03 574.765 1220.43 572.065 1216.43 571.165 C 1212.33 570.365 1208.83 569.465 1208.53 569.265 C 1207.53 568.265 1220.93 565.765 1227.73 565.665 C 1231.63 565.565 1237.43 566.265 1240.73 567.065 Z M 1271.73 579.365 C 1272.73 582.065 1271.63 581.565 1268.13 577.865 L 1264.73 574.265 L 1267.93 576.165 C 1269.73 577.165 1271.43 578.565 1271.73 579.365 Z M 1221.83 577.665 C 1243.83 584.365 1260.83 602.865 1266.83 626.565 C 1267.73 630.165 1268.93 633.665 1269.63 634.465 C 1270.73 635.965 1270.93 658.865 1269.73 662.465 C 1269.33 663.865 1267.83 664.365 1262.83 664.765 C 1254.23 665.465 1246.43 669.265 1239.73 675.965 C 1233.63 681.965 1233.83 682.065 1232.73 672.065 C 1231.63 662.765 1229.23 658.265 1224.03 655.665 C 1220.13 653.865 1217.83 653.565 1206.13 653.565 C 1185.03 653.465 1175.73 651.665 1161.83 644.965 C 1158.13 643.065 1154.43 641.565 1153.63 641.565 C 1152.93 641.565 1150.43 642.865 1148.03 644.465 C 1139.53 650.065 1133.63 650.865 1124.83 647.465 C 1114.53 643.665 1106.33 634.065 1104.73 623.865 C 1103.33 615.065 1109.33 600.765 1116.73 595.065 C 1123.23 590.165 1127.33 589.365 1142.73 590.165 L 1156.73 590.765 L 1173.93 585.165 C 1192.13 579.165 1205.43 575.765 1211.33 575.665 C 1213.33 575.565 1218.13 576.465 1221.83 577.665 Z M 1282.33 587.565 C 1289.93 591.465 1295.63 596.565 1300.33 603.965 C 1313.93 624.865 1318.23 659.765 1311.63 695.865 C 1310.03 704.565 1308.23 708.265 1308.23 702.765 C 1308.23 699.165 1305.63 690.165 1302.93 685.065 C 1301.83 682.865 1298.33 678.565 1295.13 675.465 L 1289.33 669.865 L 1290.23 663.965 C 1290.73 660.765 1291.23 650.665 1291.23 641.565 C 1291.33 627.765 1291.03 623.765 1289.23 617.065 C 1286.53 607.065 1281.13 594.365 1277.13 588.765 C 1275.43 586.465 1274.63 584.565 1275.23 584.565 C 1275.83 584.565 1279.03 585.965 1282.33 587.565 Z M 1286.13 650.465 C 1285.93 659.265 1285.43 666.665 1285.03 667.065 C 1284.63 667.465 1282.03 666.965 1279.23 666.065 C 1274.73 664.565 1274.13 664.065 1274.63 662.165 C 1274.93 661.065 1275.23 654.365 1275.23 647.265 L 1275.23 634.565 L 1280.83 634.565 L 1286.43 634.565 L 1286.13 650.465 Z M 1161.33 650.065 C 1173.23 655.665 1178.83 656.765 1199.73 657.465 C 1210.23 657.865 1219.93 658.665 1221.43 659.365 C 1225.93 661.265 1227.23 664.565 1228.73 677.465 C 1229.93 687.865 1229.93 690.065 1228.73 693.565 C 1223.53 708.165 1227.43 725.065 1238.33 735.665 L 1243.23 740.465 L 1240.73 746.765 C 1234.23 762.865 1223.23 776.465 1212.63 781.665 C 1206.93 784.465 1205.53 784.765 1200.03 784.265 C 1186.23 783.165 1175.13 775.765 1165.23 761.065 C 1159.33 752.265 1157.63 748.965 1154.23 739.665 C 1151.53 732.265 1151.43 732.165 1147.13 731.165 L 1142.73 730.065 L 1141.53 715.565 C 1139.93 694.765 1138.83 661.665 1139.63 657.165 C 1140.23 653.965 1140.93 653.165 1144.53 651.565 C 1146.83 650.565 1149.63 649.065 1150.73 648.165 C 1153.33 646.165 1152.93 646.065 1161.33 650.065 Z M 531.226 650.165 C 531.226 650.465 530.326 651.865 529.226 653.265 C 525.326 658.265 525.226 660.865 526.726 718.465 C 527.526 749.065 528.626 794.065 529.126 818.565 C 530.926 893.765 534.326 1009.87 534.826 1014.26 C 535.126 1016.57 536.426 1020.07 537.726 1021.97 L 540.126 1025.57 L 537.126 1025.57 C 532.626 1025.57 528.026 1023.26 524.526 1019.26 C 520.626 1014.87 520.526 1013.47 519.826 979.565 C 519.526 965.565 518.326 922.765 517.326 884.565 C 516.226 846.365 514.826 796.865 514.226 774.565 C 513.726 752.265 512.726 718.065 512.126 698.565 C 511.026 663.465 511.026 662.965 513.026 658.965 C 515.526 654.165 517.026 652.765 521.926 650.965 C 525.826 649.565 531.226 649.165 531.226 650.165 Z M 810.726 651.465 L 887.726 652.065 L 891.526 654.365 C 898.226 658.565 898.526 659.765 899.426 691.565 C 901.526 767.365 904.326 875.665 905.226 917.065 C 905.726 942.365 906.426 967.365 906.626 972.665 L 907.126 982.265 L 829.426 982.965 C 786.726 983.265 703.726 983.865 645.126 984.165 L 538.526 984.865 L 537.826 962.465 C 536.526 918.265 535.226 870.365 534.226 831.565 C 533.726 809.865 532.526 763.365 531.626 728.165 C 530.726 693.065 530.326 662.765 530.726 660.965 C 531.026 658.965 532.926 655.765 535.226 653.465 L 539.126 649.265 L 636.426 650.065 C 689.926 650.465 768.426 651.065 810.726 651.465 Z M 1282.43 672.365 C 1289.43 675.865 1296.43 682.565 1299.73 689.265 C 1302.53 694.665 1302.73 695.865 1302.73 706.065 C 1302.73 715.665 1302.43 717.665 1300.33 721.865 C 1296.63 729.365 1289.93 736.065 1282.43 739.765 C 1276.53 742.665 1274.93 743.065 1267.73 742.965 C 1261.93 742.965 1258.13 742.265 1254.03 740.665 C 1246.43 737.665 1238.13 730.065 1234.53 722.765 C 1232.03 717.665 1231.73 715.965 1231.73 707.065 C 1231.73 697.765 1231.93 696.565 1235.03 690.365 C 1239.03 682.265 1247.03 674.565 1254.53 671.665 C 1261.93 668.665 1275.73 669.065 1282.43 672.365 Z M 1304.83 734.865 C 1306.63 737.165 1313.03 744.565 1319.13 751.365 C 1331.63 765.165 1331.83 765.665 1327.73 774.465 C 1320.03 790.965 1298.93 811.165 1280.13 819.965 C 1270.83 824.365 1261.43 826.965 1259.63 825.565 C 1259.03 824.965 1257.43 822.265 1256.23 819.465 L 1254.13 814.365 L 1256.13 804.765 C 1258.73 792.765 1261.93 772.365 1262.73 763.065 C 1263.03 759.165 1263.53 754.165 1263.83 751.965 L 1264.33 747.865 L 1271.53 747.365 C 1281.23 746.765 1288.73 743.265 1295.53 736.265 C 1298.33 733.265 1300.93 730.765 1301.23 730.665 C 1301.53 730.665 1303.13 732.565 1304.83 734.865 Z M 1257.53 746.565 C 1259.53 746.565 1259.43 748.565 1257.13 770.265 C 1256.03 780.065 1251.83 804.365 1251.03 805.165 C 1250.73 805.365 1248.53 802.065 1246.03 797.865 C 1243.53 793.565 1240.53 788.365 1239.33 786.365 L 1237.13 782.665 L 1244.53 779.265 C 1252.63 775.465 1254.03 774.165 1252.23 772.065 C 1251.23 770.865 1250.03 771.165 1244.23 774.065 C 1238.63 776.865 1223.23 782.065 1223.23 781.165 C 1223.23 781.065 1225.33 778.765 1227.83 776.165 C 1233.73 769.965 1238.83 762.065 1243.73 751.365 L 1247.63 742.865 L 1251.73 744.665 C 1253.93 745.665 1256.53 746.565 1257.53 746.565 Z M 1170.13 774.765 C 1176.53 781.765 1186.13 786.865 1195.93 788.565 C 1201.73 789.465 1204.03 789.365 1210.13 788.065 C 1218.53 786.065 1218.83 786.265 1221.63 794.965 C 1224.23 802.765 1223.63 809.765 1219.63 822.065 C 1217.63 828.065 1215.63 833.465 1215.13 833.965 C 1214.13 835.065 1195.43 831.265 1177.73 826.465 L 1166.73 823.465 L 1166.63 815.265 C 1166.53 808.365 1165.93 805.565 1162.73 797.065 C 1157.33 782.865 1156.23 778.165 1156.23 768.865 C 1156.23 756.965 1156.83 756.365 1161.23 763.265 C 1163.23 766.465 1167.23 771.665 1170.13 774.765 Z M 1348.43 762.565 C 1379.73 768.965 1404.23 781.765 1425.73 803.065 C 1468.63 845.465 1488.83 910.865 1511.13 1079.07 C 1515.83 1113.96 1519.73 1155.57 1521.43 1187.77 C 1522.03 1200.27 1522.33 1210.77 1522.03 1211.07 C 1521.73 1211.37 1462.33 1211.96 1389.93 1212.46 C 1261.53 1213.27 1258.33 1213.37 1254.53 1215.27 C 1243.03 1221.27 1241.63 1239.37 1252.03 1247.37 C 1255.43 1249.96 1256.03 1250.07 1272.63 1250.57 L 1289.63 1251.07 L 1299.53 1271.96 C 1304.93 1283.37 1309.13 1292.96 1308.93 1293.27 C 1308.63 1293.46 1301.53 1290.46 1293.13 1286.46 C 1259.23 1270.66 1238.13 1259.37 1228.33 1251.57 C 1214.93 1240.96 1214.83 1225.57 1227.93 1208.37 C 1230.73 1204.77 1233.53 1200.27 1234.13 1198.37 C 1237.43 1188.16 1238.23 1149.46 1235.63 1123.77 C 1234.73 1114.87 1234.13 1107.37 1234.33 1107.16 C 1273.03 1077.27 1310.03 1040.77 1349.13 993.965 C 1373.23 965.165 1379.03 956.565 1374.33 956.565 C 1373.73 956.565 1368.03 963.165 1361.63 971.265 C 1311.53 1034.27 1258.53 1086.27 1215.23 1114.96 C 1189.33 1132.16 1177.83 1137.46 1161.23 1139.46 C 1125.73 1143.96 896.926 1135.57 889.726 1129.57 C 888.926 1128.87 887.226 1125.87 886.026 1122.77 C 883.926 1117.57 883.726 1115.57 883.726 1098.57 C 883.826 1082.57 884.026 1079.37 885.726 1075.16 L 887.726 1070.27 L 895.726 1068.37 C 939.626 1058.07 1020.63 1046.96 1102.73 1040.07 C 1115.93 1038.96 1122.93 1037.87 1125.83 1036.66 C 1130.43 1034.57 1135.73 1028.87 1156.43 1003.57 C 1210.83 937.065 1250.23 891.665 1276.03 865.765 C 1292.73 849.065 1303.83 840.065 1315.83 833.465 C 1319.93 831.165 1323.23 829.065 1323.23 828.565 C 1323.23 828.165 1322.53 827.265 1321.73 826.565 C 1320.53 825.565 1319.13 826.065 1314.03 828.865 C 1304.63 834.165 1294.73 841.465 1285.23 850.065 C 1274.93 859.365 1249.93 885.665 1235.93 901.765 C 1229.33 909.365 1225.63 912.965 1225.43 911.965 C 1224.73 908.765 1227.43 890.265 1230.33 878.365 C 1233.83 863.965 1239.73 850.865 1248.53 837.865 C 1253.03 831.165 1255.13 828.765 1256.23 829.265 C 1264.03 832.565 1278.73 827.865 1295.63 816.765 C 1305.63 810.165 1319.43 796.565 1325.63 787.165 C 1332.63 776.665 1334.53 771.865 1334.03 765.565 C 1333.63 759.565 1333.53 759.565 1348.43 762.565 Z M 1240.73 798.265 C 1248.23 810.365 1249.23 812.465 1248.73 815.365 C 1248.43 817.165 1244.23 827.965 1239.53 839.365 C 1234.83 850.765 1229.63 863.465 1228.03 867.565 L 1225.23 875.065 L 1225.83 868.865 C 1227.13 855.065 1227.73 842.465 1227.13 840.665 C 1226.73 839.665 1225.03 838.265 1223.23 837.565 C 1221.53 836.865 1220.33 835.765 1220.53 835.165 C 1223.83 826.665 1227.53 812.565 1227.93 807.065 C 1228.43 801.265 1228.03 798.865 1225.93 792.865 L 1223.43 785.665 L 1225.63 785.265 C 1231.83 784.065 1231.73 783.965 1240.73 798.265 Z M 1182.73 832.365 C 1193.73 835.165 1207.23 838.465 1212.73 839.765 L 1222.73 842.065 L 1222.53 849.565 C 1221.93 866.865 1213.33 926.265 1210.83 930.065 C 1210.03 931.265 1202.33 940.765 1193.73 951.165 C 1185.03 961.565 1168.73 981.265 1157.43 995.065 C 1134.33 1023.07 1127.93 1030.16 1124.13 1032.16 C 1121.33 1033.57 1111.13 1034.96 1094.03 1036.16 L 1084.23 1036.77 L 1084.23 1031.87 C 1084.23 1026.87 1088.03 1009.87 1093.33 991.565 C 1105.03 950.965 1127.93 889.265 1149.43 840.265 L 1155.53 826.365 L 1159.13 826.865 C 1161.13 827.165 1171.73 829.665 1182.73 832.365 Z M 1220.13 918.965 C 1219.23 919.765 1219.13 919.465 1219.63 917.565 C 1219.93 916.165 1220.33 913.965 1220.43 912.565 C 1220.53 911.165 1220.73 911.765 1220.93 913.965 C 1221.23 916.165 1220.83 918.265 1220.13 918.965 Z M 1601.23 928.065 C 1638.93 930.965 1648.03 933.165 1655.53 941.465 C 1659.53 945.865 1662.93 954.365 1663.83 961.865 C 1664.93 972.065 1652.13 1070.87 1637.63 1164.07 C 1616.13 1302.16 1594.83 1413.57 1586.83 1429.46 C 1583.93 1435.37 1579.43 1441.57 1578.13 1441.57 C 1577.63 1441.57 1577.23 1439.87 1577.23 1437.77 C 1577.23 1432.66 1572.13 1422.46 1567.93 1419.27 C 1554.73 1409.16 1534.83 1405.77 1474.73 1402.96 C 1461.73 1402.37 1461.03 1402.27 1464.73 1401.07 C 1474.33 1398.27 1485.83 1390.27 1491.73 1382.37 C 1497.13 1375.16 1500.43 1368.37 1503.33 1358.07 C 1504.63 1353.66 1506.63 1348.66 1507.83 1347.07 C 1514.53 1337.96 1520.63 1309.57 1523.23 1275.57 C 1523.73 1267.57 1524.53 1258.27 1524.83 1254.96 L 1525.33 1248.77 L 1532.13 1248.37 C 1537.73 1248.07 1539.63 1247.46 1542.63 1245.27 C 1556.93 1234.27 1548.83 1211.57 1530.53 1211.57 C 1528.53 1211.57 1527.23 1211.07 1527.23 1210.27 C 1527.13 1205.07 1525.03 1170.57 1524.23 1160.07 C 1518.83 1094.66 1507.53 1011.76 1497.13 960.565 C 1495.53 952.665 1494.23 945.365 1494.23 944.365 C 1494.23 941.665 1500.43 935.265 1506.03 932.265 C 1510.63 929.765 1519.33 927.265 1527.23 926.165 C 1533.73 925.365 1580.63 926.465 1601.23 928.065 Z M 473.526 962.465 C 474.026 962.965 472.826 968.965 470.426 977.665 C 468.126 985.565 464.326 999.365 461.826 1008.16 C 455.726 1029.96 455.926 1029.57 450.526 1029.57 C 446.726 1029.57 446.126 1029.27 446.626 1027.77 C 449.126 1019.97 453.026 1006.47 456.826 992.565 C 459.326 983.465 462.426 972.365 463.826 967.865 L 466.226 959.665 L 469.426 960.665 C 471.126 961.165 473.026 961.965 473.526 962.465 Z M 387.726 963.965 C 388.826 967.165 387.426 968.565 383.126 968.565 C 378.526 968.565 377.726 963.265 382.026 961.765 C 385.626 960.365 386.526 960.765 387.726 963.965 Z M 391.226 976.765 C 391.826 979.165 395.226 991.465 398.826 1004.16 C 402.326 1016.87 405.226 1027.77 405.226 1028.37 C 405.226 1029.07 403.526 1029.57 400.926 1029.57 L 396.626 1029.57 L 389.826 1003.76 C 380.726 969.765 381.126 972.565 386.026 972.565 C 390.026 972.565 390.226 972.665 391.226 976.765 Z M 456.226 975.065 C 456.226 977.565 444.626 1019.47 443.726 1020.37 C 442.826 1021.37 440.026 1019.47 440.526 1018.16 C 441.326 1016.26 448.726 990.365 451.226 980.765 C 452.626 975.465 453.926 972.565 454.826 972.565 C 455.626 972.565 456.226 973.565 456.226 975.065 Z M 906.626 989.765 C 907.726 995.365 907.226 1009.57 905.826 1012.87 C 905.126 1014.66 903.326 1017.07 901.926 1018.37 C 897.326 1022.66 912.226 1022.16 688.426 1024.57 C 551.326 1026.07 549.326 1026.07 546.326 1023.76 C 540.426 1019.37 539.726 1017.47 539.426 1003.16 L 539.026 989.765 L 609.426 989.065 C 648.126 988.665 729.726 988.065 790.726 987.665 C 851.826 987.365 902.726 986.965 903.926 986.965 C 905.526 986.865 906.126 987.565 906.626 989.765 Z M 666.226 1030.46 C 666.226 1031.57 664.926 1035.96 663.326 1040.27 C 642.526 1095.46 639.926 1103.16 639.426 1110.37 C 639.026 1116.87 639.226 1117.96 641.626 1121.57 C 646.726 1129.37 656.826 1132.37 680.226 1133.27 C 690.426 1133.66 697.026 1134.27 697.426 1134.96 C 697.826 1135.57 698.226 1137.16 698.226 1138.46 L 698.226 1140.87 L 682.126 1140.16 C 661.526 1139.27 651.526 1137.57 643.226 1133.37 C 632.526 1127.87 627.726 1118.27 630.226 1107.07 C 630.826 1104.37 635.326 1091.77 640.226 1079.16 C 645.126 1066.46 651.226 1050.46 653.726 1043.57 C 656.326 1036.66 658.926 1030.46 659.426 1029.77 C 660.026 1029.16 661.726 1028.57 663.326 1028.57 C 665.526 1028.57 666.226 1029.07 666.226 1030.46 Z M 732.226 1029.57 C 732.226 1030.16 731.026 1033.87 729.626 1037.87 C 710.226 1092.27 706.226 1104.77 706.226 1110.07 C 706.226 1115.27 709.826 1122.37 713.826 1125.07 L 716.826 1127.16 L 707.026 1126.77 C 698.126 1126.37 697.226 1126.46 697.226 1128.07 C 697.226 1129.77 696.226 1129.87 683.526 1129.16 C 652.626 1127.66 643.526 1123.57 643.926 1111.27 C 644.026 1105.87 645.426 1101.57 660.026 1062.57 C 664.426 1050.77 668.826 1038.46 669.926 1035.37 L 671.726 1029.66 L 686.226 1029.37 C 722.726 1028.57 732.226 1028.57 732.226 1029.57 Z M 471.926 1038.27 C 468.726 1063.46 461.126 1125.27 460.126 1133.27 L 458.926 1143.57 L 425.526 1143.57 C 399.726 1143.57 392.026 1143.27 391.726 1142.27 C 391.526 1141.66 390.126 1131.87 388.726 1120.57 C 383.026 1073.46 378.226 1034.57 378.226 1034.27 C 378.226 1034.16 399.426 1033.96 425.326 1033.77 L 472.526 1033.57 L 471.926 1038.27 Z M 858.726 1078.16 C 865.926 1079.46 873.326 1080.96 875.226 1081.37 L 878.726 1082.16 L 878.426 1095.57 C 878.126 1105.16 878.526 1111.27 879.626 1116.57 C 880.526 1120.66 881.226 1124.46 881.226 1124.96 C 881.226 1125.46 876.426 1125.57 870.526 1125.37 C 858.826 1124.77 849.626 1122.37 835.126 1115.96 C 830.926 1114.07 825.926 1112.57 824.226 1112.57 C 822.226 1112.57 814.026 1115.87 803.026 1121.07 C 787.026 1128.66 779.526 1131.16 777.726 1129.37 C 775.726 1127.46 794.126 1112.46 807.526 1105.07 C 814.026 1101.46 815.826 1099.07 812.826 1097.96 C 810.026 1096.87 788.026 1110.87 778.326 1119.77 C 774.826 1123.07 774.026 1123.46 771.726 1122.57 C 770.326 1122.07 769.226 1121.27 769.226 1120.77 C 769.226 1118.46 776.426 1109.16 784.026 1101.77 C 799.826 1086.27 813.326 1078.07 827.226 1075.57 C 833.326 1074.46 843.126 1075.27 858.726 1078.16 Z M 1231.03 1124.27 C 1231.63 1131.37 1232.43 1141.37 1232.83 1146.57 C 1233.53 1157.16 1231.73 1188.87 1230.13 1195.07 C 1229.53 1197.27 1226.43 1202.57 1223.23 1206.77 C 1218.43 1213.27 1215.33 1219.07 1213.73 1225.07 C 1213.53 1225.66 1205.23 1227.66 1195.13 1229.46 C 1179.23 1232.37 1156.73 1236.66 1149.53 1238.27 L 1147.23 1238.77 L 1147.23 1224.66 L 1147.23 1210.57 L 1164.73 1210.57 L 1182.23 1210.57 L 1182.23 1193.07 L 1182.23 1175.57 L 1188.73 1175.57 L 1195.33 1175.57 L 1195.03 1159.77 L 1194.73 1144.07 L 1182.23 1143.57 L 1169.73 1143.07 L 1176.03 1141.27 C 1184.63 1138.87 1200.23 1130.57 1215.73 1120.27 C 1222.83 1115.46 1229.03 1111.57 1229.33 1111.57 C 1229.63 1111.57 1230.43 1117.27 1231.03 1124.27 Z M 836.526 1121.66 C 843.226 1124.46 849.626 1127.16 850.726 1127.66 C 851.826 1128.07 840.826 1128.46 826.226 1128.46 L 799.726 1128.57 L 811.226 1122.57 C 817.526 1119.37 823.126 1116.66 823.526 1116.57 C 823.926 1116.57 829.826 1118.87 836.526 1121.66 Z M 771.426 1128.96 C 774.226 1133.96 776.126 1134.87 782.626 1134.16 C 785.926 1133.87 804.426 1133.57 823.626 1133.57 C 857.926 1133.57 858.426 1133.57 857.926 1131.66 C 857.426 1129.66 857.926 1129.66 870.726 1129.87 L 883.926 1130.07 L 885.526 1132.77 C 886.826 1135.07 887.826 1135.57 890.926 1135.57 C 893.026 1135.57 897.426 1135.96 900.726 1136.57 C 904.026 1137.07 913.926 1137.96 922.726 1138.46 C 964.526 1141.16 975.926 1141.77 991.226 1142.46 C 1000.73 1142.96 948.726 1143.37 869.626 1143.37 L 731.526 1143.57 L 730.826 1136.66 C 729.826 1125.66 728.526 1126.37 750.926 1126.77 C 768.626 1127.07 770.426 1127.27 771.426 1128.96 Z M 726.226 1137.07 L 726.226 1142.57 L 714.226 1142.57 L 702.226 1142.57 L 702.226 1137.07 L 702.226 1131.57 L 714.226 1131.57 L 726.226 1131.57 L 726.226 1137.07 Z M 1191.03 1159.66 L 1191.33 1171.27 L 711.726 1171.46 L 232.226 1171.66 L 232.226 1159.66 L 232.226 1147.66 L 711.526 1147.87 L 1190.73 1148.07 L 1191.03 1159.66 Z M 1178.23 1190.57 L 1178.23 1205.57 L 1140.53 1205.57 C 1119.73 1205.57 910.126 1205.66 674.726 1205.77 L 246.726 1205.96 L 246.426 1199.96 C 246.226 1196.77 246.326 1189.87 246.726 1184.77 L 247.426 1175.57 L 712.826 1175.57 L 1178.23 1175.57 L 1178.23 1190.57 Z M 1538.93 1218.57 C 1547.43 1223.66 1547.43 1237.66 1538.93 1242.27 C 1536.03 1243.87 1530.43 1244.07 1477.73 1244.66 C 1445.83 1244.96 1383.43 1245.46 1339.03 1245.66 C 1258.73 1246.07 1258.33 1246.07 1255.53 1243.96 C 1252.13 1241.46 1249.23 1236.07 1249.23 1232.07 C 1249.23 1228.07 1252.13 1222.66 1255.53 1220.16 C 1258.33 1218.07 1259.63 1218.07 1325.03 1217.57 C 1361.73 1217.27 1424.13 1216.96 1463.73 1216.77 C 1533.63 1216.57 1535.83 1216.66 1538.93 1218.57 Z M 1213.23 1232.87 C 1213.23 1237.66 1216.43 1245.57 1220.23 1250.37 L 1224.13 1255.37 L 1214.43 1258.07 C 1199.93 1262.16 1158.03 1275.27 1152.23 1277.57 L 1147.23 1279.57 L 1147.43 1261.37 L 1147.73 1243.16 L 1154.73 1241.77 C 1160.93 1240.46 1210.53 1230.96 1212.53 1230.66 C 1212.93 1230.66 1213.23 1231.57 1213.23 1232.87 Z M 1519.83 1260.16 C 1517.53 1301.16 1510.23 1339.27 1503.63 1344.46 C 1495.33 1350.96 1460.43 1349.16 1429.73 1340.57 C 1414.93 1336.46 1390.83 1327.87 1373.83 1320.77 L 1359.93 1314.96 L 1354.73 1303.07 C 1351.83 1296.46 1345.63 1282.16 1340.83 1271.16 C 1336.03 1260.27 1332.33 1251.16 1332.53 1250.87 C 1332.73 1250.66 1373.83 1250.16 1423.83 1249.66 C 1473.83 1249.27 1516.03 1248.87 1517.63 1248.77 L 1520.53 1248.57 L 1519.83 1260.16 Z M 1337.63 1275.27 C 1359.83 1325.96 1401.43 1423.16 1401.93 1425.66 C 1402.33 1427.66 1401.83 1428.77 1399.73 1430.37 C 1394.33 1434.57 1383.93 1435.66 1380.63 1432.37 C 1379.03 1430.77 1358.23 1386.96 1327.73 1321.07 C 1319.33 1302.87 1308.53 1279.87 1303.83 1269.96 C 1299.13 1259.96 1295.23 1251.57 1295.23 1251.16 C 1295.23 1250.87 1302.33 1250.57 1311.03 1250.57 L 1326.83 1250.57 L 1337.63 1275.27 Z M 1233.33 1260.96 C 1242.03 1266.87 1283.73 1287.66 1309.83 1298.96 C 1312.43 1300.16 1313.93 1302.66 1320.63 1317.16 C 1325.03 1326.46 1334.23 1346.16 1341.23 1361.07 C 1360.53 1402.27 1361.63 1404.57 1360.93 1405.16 C 1360.63 1405.46 1329.23 1406.16 1291.03 1406.57 C 1191.53 1407.87 1174.33 1408.57 1157.43 1412.57 C 1152.83 1413.66 1148.63 1414.57 1148.13 1414.57 C 1147.63 1414.57 1147.23 1388.37 1147.23 1349.27 L 1147.23 1283.96 L 1169.53 1276.77 C 1181.73 1272.87 1198.93 1267.57 1207.73 1264.96 C 1216.53 1262.46 1224.83 1260.07 1226.23 1259.57 C 1227.63 1259.07 1228.93 1258.66 1229.23 1258.66 C 1229.53 1258.57 1231.33 1259.66 1233.33 1260.96 Z M 1376.93 1326.96 C 1413.63 1342.16 1442.23 1349.96 1470.93 1352.57 C 1479.93 1353.37 1485.33 1353.37 1491.33 1352.57 C 1495.83 1351.96 1499.63 1351.66 1499.83 1351.87 C 1500.13 1352.07 1499.13 1355.87 1497.73 1360.16 C 1488.13 1390.46 1466.33 1402.27 1416.23 1404.46 C 1407.13 1404.87 1399.43 1404.87 1398.93 1404.57 C 1398.33 1404.07 1363.23 1322.87 1363.23 1321.87 C 1363.23 1321.37 1363.53 1321.46 1376.93 1326.96 Z M 1498.23 1408.57 C 1553.93 1411.96 1572.33 1419.66 1572.63 1439.66 C 1572.73 1446.96 1569.33 1452.37 1562.53 1455.66 L 1557.73 1458.07 L 1495.23 1458.66 C 1460.83 1458.96 1377.13 1459.46 1309.23 1459.66 C 1186.23 1460.07 1185.73 1460.07 1182.23 1458.07 C 1180.33 1456.87 1177.43 1453.77 1175.73 1451.07 C 1173.33 1447.16 1172.73 1444.96 1172.43 1438.96 C 1171.83 1427.57 1175.83 1420.87 1186.63 1415.37 C 1191.93 1412.66 1208.23 1411.96 1297.93 1411.07 L 1364.13 1410.37 L 1370.63 1423.27 C 1377.83 1437.77 1378.73 1438.57 1388.13 1438.57 C 1395.63 1438.57 1403.13 1434.96 1405.73 1430.16 C 1407.63 1426.77 1407.63 1426.66 1404.93 1419.87 C 1403.53 1416.16 1402.03 1412.27 1401.63 1411.27 C 1401.13 1409.77 1401.83 1409.57 1408.83 1409.46 C 1413.23 1409.37 1420.53 1409.07 1425.23 1408.66 C 1438.23 1407.46 1479.83 1407.46 1498.23 1408.57 Z M 1403.23 1530.07 L 1403.23 1596.57 L 1376.73 1596.57 L 1350.23 1596.57 L 1350.23 1530.57 L 1350.23 1464.66 L 1357.53 1464.37 C 1361.43 1464.16 1373.43 1463.96 1384.03 1463.77 L 1403.23 1463.57 L 1403.23 1530.07 Z" style="fill: rgb(252, 249, 249);" fill="#000000" stroke="none"/><path d="M 1156.63 694.065 C 1154.53 697.265 1155.43 700.965 1158.73 703.165 C 1160.73 704.465 1161.53 704.565 1162.73 703.565 C 1165.93 700.865 1163.03 691.665 1159.03 691.565 C 1158.63 691.565 1157.53 692.665 1156.63 694.065 Z" style="fill: rgb(252, 249, 249);" fill="#000000" stroke="none"/><path d="M 1183.33 743.065 C 1180.93 747.265 1175.83 750.565 1171.93 750.565 C 1169.53 750.565 1169.13 750.965 1169.43 752.765 C 1169.73 754.765 1170.33 755.065 1173.43 754.965 C 1180.63 754.765 1191.23 744.665 1188.23 741.065 C 1186.43 738.865 1185.63 739.165 1183.33 743.065 Z" style="fill: rgb(252, 249, 249);" fill="#000000" stroke="none"/><path d="M 648.026 713.765 C 647.826 714.465 647.926 730.565 648.326 749.565 C 648.726 768.565 649.526 814.165 650.226 851.065 C 650.826 887.865 651.526 919.065 651.826 920.265 L 652.226 922.565 L 765.826 922.565 C 864.626 922.565 879.326 922.365 879.826 921.065 C 880.326 919.865 879.026 854.065 876.626 752.465 L 876.026 725.865 L 840.826 725.265 C 821.526 724.865 788.026 724.565 766.526 724.565 L 727.226 724.565 L 727.226 719.565 C 727.226 715.865 726.826 714.465 725.526 713.765 C 724.526 713.265 706.826 712.765 686.126 712.665 C 655.426 712.465 648.426 712.665 648.026 713.765 Z M 722.226 729.065 L 722.226 740.565 L 690.326 740.565 C 672.726 740.565 657.726 740.865 656.926 741.165 C 656.126 741.465 654.726 740.965 653.826 740.065 C 652.526 738.765 652.226 736.265 652.226 727.965 L 652.226 717.565 L 687.226 717.565 L 722.226 717.565 L 722.226 729.065 Z M 872.426 765.065 C 872.726 784.265 873.526 820.965 874.126 846.565 C 874.726 872.165 875.326 898.665 875.326 905.565 L 875.426 918.065 L 765.826 918.365 C 705.526 918.565 656.226 918.565 656.226 918.365 C 655.926 914.765 653.226 771.565 653.226 760.765 L 653.226 745.565 L 690.226 745.565 L 727.226 745.565 L 727.226 737.565 L 727.226 729.565 L 799.526 729.765 L 871.726 730.065 L 872.426 765.065 Z" style="fill: rgb(252, 249, 249);" fill="#000000" stroke="none"/><path d="M 661.726 726.465 C 660.726 730.965 662.726 733.765 666.526 733.365 C 669.626 733.065 669.726 732.865 670.026 728.265 L 670.326 723.565 L 666.326 723.565 C 662.726 723.565 662.326 723.865 661.726 726.465 Z" style="fill: rgb(252, 249, 249);" fill="#000000" stroke="none"/><path d="M 679.626 724.965 C 679.326 725.765 679.226 727.865 679.426 729.765 C 679.726 732.865 679.926 733.065 683.726 733.065 C 687.126 733.065 687.726 732.765 688.026 730.665 C 688.226 729.465 688.126 727.265 687.826 725.965 C 687.326 723.965 686.526 723.565 683.626 723.565 C 681.626 723.565 679.926 724.165 679.626 724.965 Z" style="fill: rgb(252, 249, 249);" fill="#000000" stroke="none"/><path d="M 697.626 724.965 C 697.326 725.765 697.226 727.865 697.426 729.765 C 697.726 732.565 698.126 733.065 700.526 733.365 C 702.126 733.565 704.026 733.165 704.826 732.465 C 706.726 730.965 706.626 727.065 704.626 725.165 C 702.726 723.165 698.326 723.065 697.626 724.965 Z" style="fill: rgb(252, 249, 249);" fill="#000000" stroke="none"/><path d="M 715.226 760.565 C 703.626 764.265 703.926 764.165 700.026 762.065 C 696.526 760.165 696.226 760.165 692.826 761.865 C 685.026 765.565 685.726 773.365 694.726 782.265 C 698.826 786.465 700.626 787.565 703.026 787.565 C 707.226 787.565 708.826 785.765 715.126 774.165 C 721.526 762.265 721.626 758.565 715.226 760.565 Z M 713.226 767.165 C 711.726 771.065 704.226 783.565 703.426 783.565 C 701.726 783.565 695.526 777.465 693.426 773.765 C 691.226 769.865 691.226 769.765 693.126 767.465 C 694.926 765.265 695.226 765.165 698.426 766.465 C 703.726 768.665 706.526 768.665 710.226 766.665 C 712.126 765.665 713.826 764.765 713.926 764.665 C 714.026 764.565 713.726 765.765 713.226 767.165 Z" style="fill: rgb(252, 249, 249);" fill="#000000" stroke="none"/><path d="M 726.526 764.065 C 726.226 764.965 726.226 765.865 726.526 766.165 C 726.826 766.465 754.026 766.865 786.926 766.865 C 846.126 767.065 846.726 767.065 846.726 765.065 C 846.726 763.065 845.926 763.065 786.926 762.765 C 733.726 762.565 727.126 762.765 726.526 764.065 Z" style="fill: rgb(252, 249, 249);" fill="#000000" stroke="none"/><path d="M 731.926 777.265 C 726.126 777.565 725.126 777.965 725.426 779.365 C 725.726 780.965 729.526 781.065 775.626 781.365 C 826.926 781.565 829.026 781.465 826.026 777.865 C 825.226 776.865 815.926 776.565 781.826 776.765 C 758.126 776.865 735.626 777.065 731.926 777.265 Z" style="fill: rgb(252, 249, 249);" fill="#000000" stroke="none"/><path d="M 699.026 792.265 C 688.026 792.565 687.226 792.765 687.226 794.565 C 687.226 796.565 687.926 796.565 718.526 796.365 C 748.926 796.065 749.726 796.065 749.726 794.065 C 749.726 792.165 749.026 792.065 730.226 792.065 C 719.526 791.965 705.426 792.165 699.026 792.265 Z" style="fill: rgb(252, 249, 249);" fill="#000000" stroke="none"/><path d="M 690.726 823.065 C 685.726 827.965 688.326 836.465 697.126 843.865 C 703.526 849.165 707.526 847.365 713.826 836.465 C 716.426 832.065 719.626 827.365 721.026 826.065 C 724.326 822.965 723.426 820.065 719.426 821.065 C 717.926 821.465 715.026 821.665 712.826 821.665 C 710.726 821.565 708.426 822.065 707.626 822.665 C 706.626 823.565 705.326 823.365 702.226 822.165 C 696.626 819.965 693.526 820.165 690.726 823.065 Z M 700.726 826.465 C 703.726 828.065 704.926 828.165 708.326 827.365 C 710.526 826.765 712.526 826.565 712.826 826.765 C 713.426 827.465 706.626 840.065 704.726 841.565 C 702.726 843.165 700.026 841.465 695.726 835.865 C 691.826 830.765 691.426 829.065 693.926 826.365 C 695.926 824.165 696.426 824.165 700.726 826.465 Z" style="fill: rgb(252, 249, 249);" fill="#000000" stroke="none"/><path d="M 735.226 823.565 C 735.226 825.565 735.626 825.565 791.526 825.365 C 840.726 825.065 847.726 824.865 847.726 823.565 C 847.726 822.265 840.726 822.065 791.526 821.765 C 735.626 821.565 735.226 821.565 735.226 823.565 Z" style="fill: rgb(252, 249, 249);" fill="#000000" stroke="none"/><path d="M 735.526 837.165 C 735.226 838.065 735.426 839.065 736.026 839.465 C 736.526 839.765 753.326 839.965 773.226 839.765 C 806.826 839.565 809.326 839.365 809.026 837.765 C 808.726 836.165 805.826 836.065 772.426 835.765 C 739.826 835.565 736.126 835.665 735.526 837.165 Z" style="fill: rgb(252, 249, 249);" fill="#000000" stroke="none"/><path d="M 687.526 853.065 C 687.226 853.965 687.226 854.865 687.526 855.165 C 687.826 855.465 702.226 855.765 719.426 855.765 C 750.326 855.665 750.726 855.665 751.026 853.665 C 751.326 851.565 751.226 851.565 719.726 851.565 C 692.226 851.565 688.126 851.765 687.526 853.065 Z" style="fill: rgb(252, 249, 249);" fill="#000000" stroke="none"/><path d="M 777.426 875.265 C 716.826 875.565 713.126 875.665 713.426 877.365 C 713.726 878.965 717.926 879.065 780.526 879.365 L 847.326 879.565 L 847.026 877.365 C 846.826 875.665 846.026 875.065 844.226 875.065 C 842.826 875.065 812.826 875.165 777.426 875.265 Z" style="fill: rgb(252, 249, 249);" fill="#000000" stroke="none"/><path d="M 712.726 890.565 C 712.426 891.065 712.426 891.965 712.726 892.565 C 713.126 893.165 731.726 893.565 765.326 893.565 C 816.526 893.565 817.226 893.565 817.226 891.565 C 817.226 889.565 816.526 889.565 765.326 889.565 C 731.726 889.565 713.126 889.965 712.726 890.565 Z" style="fill: rgb(252, 249, 249);" fill="#000000" stroke="none"/><path d="M 687.526 904.165 C 687.226 904.965 687.426 906.165 687.926 906.665 C 688.426 907.165 700.526 907.465 717.826 907.365 C 745.926 907.065 746.726 906.965 746.726 905.065 C 746.726 903.165 745.926 903.065 717.426 902.765 C 691.526 902.565 688.126 902.765 687.526 904.165 Z" style="fill: rgb(252, 249, 249);" fill="#000000" stroke="none"/><path d="M 1260.43 680.165 C 1253.93 683.365 1248.63 689.465 1246.73 695.965 C 1244.83 702.165 1244.83 703.965 1246.73 710.365 C 1250.63 723.265 1264.23 730.365 1277.43 726.365 C 1282.83 724.765 1290.63 717.565 1292.73 712.365 C 1293.63 709.965 1294.53 705.365 1294.53 701.965 C 1294.73 683.865 1276.53 672.165 1260.43 680.165 Z M 1275.53 682.665 C 1280.43 683.965 1286.03 688.965 1288.33 694.065 C 1291.03 699.865 1290.73 705.265 1287.53 711.665 C 1279.93 726.465 1260.03 726.865 1252.83 712.365 C 1248.13 702.965 1250.03 694.365 1258.43 687.165 C 1264.43 681.965 1268.93 680.765 1275.53 682.665 Z" style="fill: rgb(252, 249, 249);" fill="#000000" stroke="none"/><path d="M 973.226 673.965 C 958.626 677.965 949.626 687.865 947.226 702.665 C 946.026 710.365 945.926 726.565 947.126 735.765 C 948.826 748.965 956.026 759.665 965.826 763.665 L 971.426 765.965 L 971.126 778.065 C 970.826 789.565 971.226 792.565 973.226 792.565 C 974.226 792.565 983.126 785.365 995.026 774.865 L 1003.23 767.565 L 1021.63 767.565 C 1042.03 767.565 1045.23 766.965 1053.73 761.065 C 1059.93 756.765 1064.73 749.865 1066.73 742.065 C 1068.53 734.965 1068.83 709.365 1067.13 701.365 C 1063.93 686.465 1054.33 676.865 1039.43 673.665 C 1031.93 672.065 979.126 672.265 973.226 673.965 Z M 1045.73 680.365 C 1052.43 683.565 1057.43 688.665 1060.63 695.465 C 1062.53 699.665 1062.73 701.865 1062.73 721.065 L 1062.73 742.065 L 1059.73 747.365 C 1056.23 753.765 1052.63 756.965 1045.23 760.465 C 1040.03 762.965 1038.83 763.065 1020.23 763.365 L 1000.73 763.665 L 988.226 774.565 L 975.726 785.465 L 975.426 774.165 L 975.126 762.765 L 970.226 760.765 C 962.326 757.465 958.526 753.965 955.026 746.765 L 951.726 740.065 L 951.726 720.065 C 951.726 701.265 951.826 699.765 954.026 695.065 C 957.126 688.265 961.626 683.865 968.726 680.465 L 974.726 677.565 L 1007.23 677.565 L 1039.73 677.565 L 1045.73 680.365 Z" style="fill: rgb(252, 249, 249);" fill="#000000" stroke="none"/><path d="M 972.226 716.565 C 971.126 717.665 970.226 719.865 970.226 721.565 C 970.226 728.265 977.826 731.065 983.026 726.265 C 985.826 723.665 985.826 720.665 983.126 717.165 C 980.526 713.865 975.226 713.565 972.226 716.565 Z" style="fill: rgb(252, 249, 249);" fill="#000000" stroke="none"/><path d="M 1002.73 717.065 C 999.726 720.065 999.626 722.465 1002.33 725.965 C 1005.03 729.465 1011.33 729.665 1013.63 726.365 C 1019.13 718.565 1009.33 710.365 1002.73 717.065 Z" style="fill: rgb(252, 249, 249);" fill="#000000" stroke="none"/><path d="M 1033.33 716.965 C 1028.43 722.165 1033.23 730.565 1040.13 729.065 C 1042.13 728.665 1043.83 727.365 1044.73 725.565 C 1046.83 721.565 1046.63 719.865 1043.73 717.065 C 1040.63 713.865 1036.33 713.765 1033.33 716.965 Z" style="fill: rgb(252, 249, 249);" fill="#000000" stroke="none"/></svg>