<?xml version="1.0" encoding="utf-8"?>
<svg xmlns="http://www.w3.org/2000/svg" viewBox="171.5981 89.1484 674.274 838.7645" width="674.274pt" height="838.764pt" preserveAspectRatio="none"><g transform="matrix(0.10000000149011612, 0, 0, -0.10000000149011612, 0, 1023.9999999999999)" fill="#000000" stroke="none" id="object-0"><path d="M2510 9340 c-228 -9 -294 -22 -430 -87 -81 -39 -108 -59 -180 -132 -124 -125 -162 -216 -177 -422 -10 -134 -9 -6544 1 -6749 4 -85 8 -162 8 -170 0 -51 34 -229 59 -306 56 -175 181 -321 349 -409 112 -57 205 -81 370 -94 168 -14 4984 -13 5140 0 406 35 622 179 739 494 28 76 51 211 61 359 8 113 10 963 8 2831 -3 2516 -4 2673 -21 2730 -32 109 -76 181 -175 288 -103 110 -541 565 -787 817 -83 85 -250 258 -370 384 -121 126 -258 262 -304 303 -111 98 -214 148 -331 162 -96 12 -3634 13 -3960 1z m4023 -139 l37 -14 0 -611 c0 -575 1 -616 20 -690 27 -108 63 -169 146 -252 84 -84 179 -135 299 -162 72 -15 140 -17 658 -14 l578 2 27 -57 27 -58 6 -745 c3 -410 5 -1647 3 -2750 -3 -2122 -3 -2134 -48 -2300 -44 -158 -157 -297 -297 -363 -86 -41 -203 -74 -299 -85 -36 -4 -1224 -7 -2640 -7 -2771 0 -2646 -2 -2788 51 -151 56 -272 177 -337 335 -49 121 -65 251 -75 629 -12 481 -15 5530 -3 6170 11 567 8 545 69 667 55 111 191 201 358 238 43 10 145 21 225 25 80 4 1012 7 2071 6 1629 -1 1931 -3 1963 -15z m590 -531 c707 -733 1032 -1071 1035 -1079 1 -4 -215 -8 -480 -9 -559 -4 -607 1 -745 68 -96 47 -150 102 -197 200 l-31 65 -5 591 -5 591 43 -36 c24 -20 197 -196 385 -391z" style="fill: rgb(255, 255, 255);"/><path d="M3455 7204 c-185 -30 -369 -103 -521 -204 -87 -59 -238 -204 -301 -290 -300 -412 -344 -941 -117 -1393 231 -457 685 -720 1199 -694 138 8 156 10 283 43 177 44 354 136 487 251 222 192 374 458 432 756 25 128 25 380 0 497 -52 242 -157 448 -318 625 -114 126 -193 189 -324 260 -134 73 -276 122 -435 150 -73 12 -306 12 -385 -1z m438 -135 c225 -47 431 -161 589 -327 362 -379 437 -921 192 -1392 -47 -89 -149 -240 -163 -240 -4 0 -13 19 -20 43 -7 23 -30 79 -52 125 -77 167 -244 288 -459 333 -139 29 -412 36 -552 15 -329 -49 -498 -177 -593 -448 l-27 -76 -28 31 c-84 97 -179 271 -224 410 -82 252 -78 551 10 785 150 401 472 676 874 747 111 20 346 17 453 -6z m57 -1584 c184 -42 316 -137 384 -277 38 -78 71 -191 61 -208 -3 -6 -33 -28 -65 -50 -417 -283 -973 -275 -1377 19 l-42 30 20 73 c33 118 76 196 143 263 90 89 203 142 349 161 23 4 44 8 47 11 13 13 408 -5 480 -22z" style="fill: rgb(255, 255, 255);"/><path d="M3531 6680 c-152 -41 -249 -139 -299 -302 -30 -98 -35 -172 -17 -258 23 -111 74 -207 143 -271 70 -65 125 -94 219 -113 163 -35 340 41 436 186 63 96 80 159 81 288 1 134 -13 192 -72 289 -97 161 -296 234 -491 181z m235 -131 c73 -27 128 -78 165 -150 93 -185 35 -409 -130 -507 -35 -21 -61 -27 -127 -30 -141 -7 -230 40 -292 155 -112 210 -27 477 172 539 63 20 148 17 212 -7z" style="fill: rgb(255, 255, 255);"/><path d="M5520 6723 c-37 -13 -55 -84 -28 -111 19 -19 2237 -17 2263 2 23 17 24 71 1 94 -15 16 -96 17 -1119 18 -606 1 -1109 0 -1117 -3z" style="fill: rgb(255, 255, 255);"/><path d="M5495 6000 c-24 -27 -22 -70 5 -92 21 -17 76 -18 1130 -18 l1109 0 20 26 c27 34 26 50 -4 79 l-24 25 -1109 0 c-1090 0 -1109 0 -1127 -20z" style="fill: rgb(255, 255, 255);"/><path d="M5495 5304 c-25 -25 -16 -85 15 -101 34 -17 1786 -19 1823 -2 48 22 55 96 12 113 -9 3 -425 6 -925 6 -825 0 -910 -1 -925 -16z" style="fill: rgb(255, 255, 255);"/><path d="M5097 4602 c-25 -27 -22 -78 5 -96 20 -14 130 -16 981 -16 l958 0 24 25 c30 29 32 58 5 85 -20 20 -33 20 -988 20 -926 0 -970 -1 -985 -18z" style="fill: rgb(255, 255, 255);"/><path d="M2517 3892 c-23 -25 -21 -68 3 -92 20 -20 33 -20 2213 -20 l2194 0 21 23 c27 29 28 61 2 87 -20 20 -33 20 -2218 20 -2118 0 -2200 -1 -2215 -18z" style="fill: rgb(255, 255, 255);"/><path d="M2520 3200 c-27 -27 -26 -75 2 -94 20 -14 210 -16 1824 -16 1778 0 1801 0 1819 20 24 27 22 70 -5 92 -21 17 -100 18 -1821 18 -1786 0 -1799 0 -1819 -20z" style="fill: rgb(255, 255, 255);"/><path d="M2524 2505 c-28 -28 -30 -52 -8 -83 l15 -22 1300 0 c1286 0 1299 0 1319 20 27 27 25 56 -5 86 l-24 24 -1287 -1 -1286 0 -24 -24z" style="fill: rgb(255, 255, 255);"/></g></svg>